<svg width="624" height="452" viewBox="0 0 624 452" fill="none" xmlns="http://www.w3.org/2000/svg">
<path d="M312 150.5C312 170.264 315.88 189.834 323.418 208.094C330.956 226.353 342.005 242.944 355.934 256.92C369.863 270.895 386.399 281.981 404.597 289.544C422.796 297.107 442.302 301 462 301L462 150.5L312 150.5Z" fill="#FF0000"/>
<path d="M150 151C130.302 151 110.796 154.893 92.5975 162.456C74.3986 170.019 57.8628 181.105 43.934 195.08C30.0052 209.056 18.9563 225.647 11.4181 243.906C3.87986 262.166 -2.97436e-06 281.736 0 301.5L150 301.5L150 151Z" fill="#FF0000"/>
<path d="M316 301.5C316 281.736 312.12 262.166 304.582 243.906C297.044 225.647 285.995 209.056 272.066 195.08C258.137 181.105 241.601 170.019 223.403 162.456C205.204 154.893 185.698 151 166 151L166 301.5H316Z" fill="#FF0000"/>
<path d="M624 150.5C624 170.264 620.12 189.834 612.582 208.094C605.044 226.353 593.995 242.944 580.066 256.92C566.137 270.895 549.601 281.981 531.403 289.544C513.204 297.107 493.698 301 474 301L474 150.5H624Z" fill="#FF0000"/>
</svg>
